<svg width="669" height="233" viewBox="0 0 669 233" fill="none" xmlns="http://www.w3.org/2000/svg">
<path d="M23.15 58.7C21.15 58.7 19.55 58.4667 18.35 58C17.1833 57.5667 15.9167 56.8167 14.55 55.75L13.7 58H5.8V46.1H13.65C14.15 47.4667 14.9167 48.4333 15.95 49C17.0167 49.5667 18.3167 49.85 19.85 49.85C20.7833 49.85 21.5833 49.6667 22.25 49.3C22.9167 48.9 23.25 48.3833 23.25 47.75C23.25 46.95 22.9 46.35 22.2 45.95C21.5333 45.55 20.5833 45.1833 19.35 44.85C16.2167 43.9833 13.6333 43.05 11.6 42.05C9.6 41.05 7.98333 39.6167 6.75 37.75C5.51667 35.8833 4.9 33.4167 4.9 30.35C4.9 27.9833 5.4 25.9 6.4 24.1C7.43333 22.3 8.9 20.9 10.8 19.9C12.7 18.9 14.9333 18.4 17.5 18.4C20.6333 18.4 23.1167 19.4 24.95 21.4L26.2 19.1H33.2V30.75H25.7C25 29.2833 24.2167 28.2667 23.35 27.7C22.5167 27.1333 21.3667 26.85 19.9 26.85C18.7667 26.85 17.8833 27.05 17.25 27.45C16.65 27.85 16.35 28.4 16.35 29.1C16.35 29.8667 16.7833 30.4667 17.65 30.9C18.55 31.3 19.8167 31.6833 21.45 32.05C24.35 32.7167 26.8 33.55 28.8 34.55C30.8333 35.5167 32.45 36.9167 33.65 38.75C34.8833 40.55 35.5 42.8833 35.5 45.75C35.5 48.1833 34.9833 50.3833 33.95 52.35C32.95 54.3167 31.5 55.8667 29.6 57C27.7333 58.1333 25.5833 58.7 23.15 58.7ZM39.6762 58V49.4H44.3762V27.75H39.6762V19.15H72.4762V34.6H66.2262L63.8762 27.75H56.8762V34.1H63.1262V40.5H56.8762V49.4H63.8762L66.2262 41.45H72.4762V58H39.6762ZM94.0266 58.7C88.2266 58.7 84.0432 57.1833 81.4766 54.15C78.9432 51.1167 77.6766 46.6667 77.6766 40.8V27.75H73.7266V19.15H94.9266V27.75H91.3266V44.1C91.3266 45.7 91.7099 47.0167 92.4766 48.05C93.2766 49.05 94.5099 49.55 96.1766 49.55C97.5766 49.55 98.6766 49.1333 99.4766 48.3C100.31 47.4667 100.727 46.3333 100.727 44.9V27.75H96.7266V19.15H112.677V27.75H108.927V44.55C108.927 49.2167 107.56 52.75 104.827 55.15C102.093 57.5167 98.4932 58.7 94.0266 58.7Z" fill="#06728A"/>
<path d="M431.8 232V223.4H435.65L442.35 201.75H437.25V193.15H461.45L470.1 223.4H473.95V232H452.1V223.4H455.25L454.2 219.25H445.4L444.3 223.4H448.95V232H431.8ZM446.65 213.35H453.05L450.2 201.45L446.65 213.35ZM495.669 232.7C491.802 232.7 488.352 231.833 485.319 230.1C482.285 228.333 479.902 225.917 478.169 222.85C476.469 219.783 475.619 216.333 475.619 212.5C475.619 208.5 476.435 204.983 478.069 201.95C479.702 198.917 482.019 196.567 485.019 194.9C488.052 193.233 491.602 192.4 495.669 192.4C499.735 192.4 503.269 193.233 506.269 194.9C509.269 196.567 511.585 198.917 513.219 201.95C514.852 204.983 515.669 208.5 515.669 212.5C515.669 216.5 514.735 220.083 512.869 223.25L512.969 223.2H516.919V232H501.369C499.502 232.467 497.602 232.7 495.669 232.7ZM495.669 224.25C497.369 224.25 498.685 223.083 499.619 220.75C500.552 218.383 501.019 215.567 501.019 212.3C501.019 209.2 500.569 206.583 499.669 204.45C498.769 202.317 497.435 201.25 495.669 201.25C493.869 201.25 492.519 202.317 491.619 204.45C490.719 206.583 490.269 209.2 490.269 212.3C490.269 215.567 490.735 218.383 491.669 220.75C492.602 223.083 493.935 224.25 495.669 224.25ZM540.093 232.7C534.293 232.7 530.11 231.183 527.543 228.15C525.01 225.117 523.743 220.667 523.743 214.8V201.75H519.793V193.15H540.993V201.75H537.393V218.1C537.393 219.7 537.776 221.017 538.543 222.05C539.343 223.05 540.576 223.55 542.243 223.55C543.643 223.55 544.743 223.133 545.543 222.3C546.376 221.467 546.793 220.333 546.793 218.9V201.75H542.793V193.15H558.743V201.75H554.993V218.55C554.993 223.217 553.626 226.75 550.893 229.15C548.16 231.517 544.56 232.7 540.093 232.7ZM563.252 232V223.4H567.152V201.75H563.252V193.15H583.552V201.75H579.652V223.4H583.552V232H563.252Z" fill="#06728A"/>
<path d="M3.72 174V153.36H15V101.4H3.72V80.76H54L72.12 125.64L90 80.76H136.92V101.4H125.64V153.36H136.92V174H88.08V153.36H95.64V118.56L75 174H58.08L33.72 117.24V153.36H43.08V174H3.72ZM144.624 174V153.36H155.904V101.4H144.624V80.76H223.344V117.84H208.344L202.704 101.4H185.904V116.64H200.904V132H185.904V153.36H202.704L208.344 134.28H223.344V174H144.624ZM171.624 72.6L166.344 63.84L196.224 45.24L204.144 61.32L171.624 72.6ZM227.665 153.36H237.025V101.4H227.665V80.76H270.865C287.825 80.76 300.785 84.68 309.745 92.52C318.785 100.36 323.305 111.96 323.305 127.32C323.305 142.28 318.825 153.8 309.865 161.88C300.905 169.96 287.865 174 270.745 174H227.665V153.36ZM270.745 153.36C277.305 153.36 282.065 150.92 285.025 146.04C288.065 141.08 289.585 134.84 289.585 127.32C289.585 119.64 288.105 113.4 285.145 108.6C282.185 103.8 277.385 101.4 270.745 101.4H267.025V153.36H270.745ZM337.208 174V153.36H346.568V101.4H337.208V80.76H385.928V101.4H376.568V153.36H385.928V174H337.208ZM440.883 175.68C432.243 175.68 424.323 173.88 417.123 170.28C410.003 166.6 404.283 161.12 399.963 153.84C395.723 146.48 393.603 137.48 393.603 126.84C393.603 117.88 395.203 109.8 398.403 102.6C401.683 95.32 406.443 89.56 412.683 85.32C419.003 81.08 426.603 78.96 435.483 78.96C440.043 78.96 444.123 80.04 447.723 82.2C451.323 84.28 453.923 86.96 455.523 90.24L457.923 80.76H476.163V119.04H457.443V117.12C457.443 112.16 456.283 108.12 453.963 105C451.723 101.8 448.363 100.2 443.883 100.2C440.843 100.2 438.043 101.36 435.483 103.68C433.003 106 431.043 109.04 429.603 112.8C428.163 116.56 427.443 120.44 427.443 124.44C427.443 132.28 429.403 138.44 433.323 142.92C437.243 147.32 442.603 149.52 449.403 149.52C454.203 149.52 458.643 148.72 462.723 147.12C466.883 145.52 470.283 143.8 472.923 141.96L474.243 143.04V168C469.283 170.88 464.043 172.88 458.523 174C453.003 175.12 447.123 175.68 440.883 175.68ZM531.109 175.68C521.349 175.68 512.909 173.6 505.789 169.44C498.749 165.28 493.389 159.56 489.709 152.28C486.029 144.92 484.189 136.56 484.189 127.2C484.189 117.52 486.029 109.04 489.709 101.76C493.389 94.48 498.749 88.88 505.789 84.96C512.829 80.96 521.269 78.96 531.109 78.96C540.949 78.96 549.389 80.96 556.429 84.96C563.469 88.88 568.829 94.48 572.509 101.76C576.189 109.04 578.029 117.52 578.029 127.2C578.029 136.56 576.189 144.92 572.509 152.28C568.829 159.56 563.429 165.28 556.309 169.44C549.269 173.6 540.869 175.68 531.109 175.68ZM531.109 154.92C535.349 154.92 538.589 152.36 540.829 147.24C543.069 142.12 544.189 135.28 544.189 126.72C544.189 118.4 543.109 111.84 540.949 107.04C538.789 102.16 535.509 99.72 531.109 99.72C526.709 99.72 523.429 102.16 521.269 107.04C519.109 111.84 518.029 118.4 518.029 126.72C518.029 135.28 519.149 142.12 521.389 147.24C523.629 152.36 526.869 154.92 531.109 154.92Z" fill="#4DE882"/>
</svg>
